<?xml version="1.0" standalone="no"?>
<!DOCTYPE svg PUBLIC "-//W3C//DTD SVG 1.1//EN" "http://www.w3.org/Graphics/SVG/1.1/DTD/svg11.dtd">

<svg width="608.0" height="146.0" viewBox="0 0 608.0 146.0" version="1.1" xmlns="http://www.w3.org/2000/svg" xmlns:xlink="http://www.w3.org/1999/xlink">
<!-- automatically generated by aafigure --><line x1="129.0" y1="3.0" x2="115.0" y2="17.0" stroke="#000000" stroke-width="2.0" />
<line x1="171.0" y1="3.0" x2="157.0" y2="17.0" stroke="#000000" stroke-width="2.0" />
<line x1="290.0" y1="17.0" x2="346.0" y2="17.0" stroke="#000000" stroke-width="2.0" />
<line x1="486.0" y1="17.0" x2="528.0" y2="17.0" stroke="#000000" stroke-width="2.0" />
<line x1="535.0" y1="3.0" x2="549.0" y2="17.0" stroke="#000000" stroke-width="2.0" />
<line x1="115.0" y1="17.0" x2="101.0" y2="31.0" stroke="#000000" stroke-width="2.0" />
<line x1="157.0" y1="17.0" x2="143.0" y2="31.0" stroke="#000000" stroke-width="2.0" />
<line x1="185.0" y1="17.0" x2="171.0" y2="31.0" stroke="#000000" stroke-width="2.0" />
<line x1="178.0" y1="31.0" x2="206.0" y2="31.0" stroke="#000000" stroke-width="2.0" />
<line x1="297.0" y1="17.0" x2="283.0" y2="31.0" stroke="#000000" stroke-width="2.0" />
<line x1="339.0" y1="17.0" x2="325.0" y2="31.0" stroke="#000000" stroke-width="2.0" />
<line x1="479.0" y1="17.0" x2="493.0" y2="31.0" stroke="#000000" stroke-width="2.0" />
<line x1="521.0" y1="17.0" x2="535.0" y2="31.0" stroke="#000000" stroke-width="2.0" />
<line x1="549.0" y1="17.0" x2="563.0" y2="31.0" stroke="#000000" stroke-width="2.0" />
<line x1="101.0" y1="31.0" x2="87.0" y2="45.0" stroke="#000000" stroke-width="2.0" />
<line x1="143.0" y1="31.0" x2="129.0" y2="45.0" stroke="#000000" stroke-width="2.0" />
<line x1="171.0" y1="31.0" x2="157.0" y2="45.0" stroke="#000000" stroke-width="2.0" />
<line x1="199.0" y1="31.0" x2="185.0" y2="45.0" stroke="#000000" stroke-width="2.0" />
<line x1="199.0" y1="31.0" x2="213.0" y2="45.0" stroke="#000000" stroke-width="2.0" />
<line x1="283.0" y1="31.0" x2="269.0" y2="45.0" stroke="#000000" stroke-width="2.0" />
<line x1="325.0" y1="31.0" x2="311.0" y2="45.0" stroke="#000000" stroke-width="2.0" />
<line x1="493.0" y1="31.0" x2="507.0" y2="45.0" stroke="#000000" stroke-width="2.0" />
<line x1="500.0" y1="45.0" x2="542.0" y2="45.0" stroke="#000000" stroke-width="2.0" />
<line x1="535.0" y1="31.0" x2="549.0" y2="45.0" stroke="#000000" stroke-width="2.0" />
<line x1="563.0" y1="31.0" x2="577.0" y2="45.0" stroke="#000000" stroke-width="2.0" />
<line x1="87.0" y1="45.0" x2="73.0" y2="59.0" stroke="#000000" stroke-width="2.0" />
<line x1="129.0" y1="45.0" x2="115.0" y2="59.0" stroke="#000000" stroke-width="2.0" />
<line x1="157.0" y1="45.0" x2="143.0" y2="59.0" stroke="#000000" stroke-width="2.0" />
<line x1="185.0" y1="45.0" x2="171.0" y2="59.0" stroke="#000000" stroke-width="2.0" />
<line x1="213.0" y1="45.0" x2="227.0" y2="59.0" stroke="#000000" stroke-width="2.0" />
<line x1="269.0" y1="45.0" x2="255.0" y2="59.0" stroke="#000000" stroke-width="2.0" />
<line x1="262.0" y1="59.0" x2="304.0" y2="59.0" stroke="#000000" stroke-width="2.0" />
<line x1="311.0" y1="45.0" x2="297.0" y2="59.0" stroke="#000000" stroke-width="2.0" />
<line x1="339.0" y1="45.0" x2="353.0" y2="59.0" stroke="#000000" stroke-width="2.0" />
<line x1="430.0" y1="59.0" x2="486.0" y2="59.0" stroke="#000000" stroke-width="2.0" />
<line x1="549.0" y1="45.0" x2="535.0" y2="59.0" stroke="#000000" stroke-width="2.0" />
<line x1="577.0" y1="45.0" x2="591.0" y2="59.0" stroke="#000000" stroke-width="2.0" />
<line x1="73.0" y1="59.0" x2="59.0" y2="73.0" stroke="#000000" stroke-width="2.0" />
<line x1="66.0" y1="73.0" x2="108.0" y2="73.0" stroke="#000000" stroke-width="2.0" />
<line x1="115.0" y1="59.0" x2="101.0" y2="73.0" stroke="#000000" stroke-width="2.0" />
<line x1="143.0" y1="59.0" x2="129.0" y2="73.0" stroke="#000000" stroke-width="2.0" />
<line x1="171.0" y1="59.0" x2="157.0" y2="73.0" stroke="#000000" stroke-width="2.0" />
<line x1="199.0" y1="59.0" x2="185.0" y2="73.0" stroke="#000000" stroke-width="2.0" />
<line x1="227.0" y1="59.0" x2="241.0" y2="73.0" stroke="#000000" stroke-width="2.0" />
<line x1="262.0" y1="73.0" x2="304.0" y2="73.0" stroke="#000000" stroke-width="2.0" />
<line x1="325.0" y1="59.0" x2="339.0" y2="73.0" stroke="#000000" stroke-width="2.0" />
<line x1="353.0" y1="59.0" x2="367.0" y2="73.0" stroke="#000000" stroke-width="2.0" />
<line x1="360.0" y1="73.0" x2="402.0" y2="73.0" stroke="#000000" stroke-width="2.0" />
<line x1="430.0" y1="73.0" x2="472.0" y2="73.0" stroke="#000000" stroke-width="2.0" />
<line x1="479.0" y1="59.0" x2="493.0" y2="73.0" stroke="#000000" stroke-width="2.0" />
<line x1="535.0" y1="59.0" x2="521.0" y2="73.0" stroke="#000000" stroke-width="2.0" />
<line x1="563.0" y1="59.0" x2="549.0" y2="73.0" stroke="#000000" stroke-width="2.0" />
<line x1="563.0" y1="59.0" x2="577.0" y2="73.0" stroke="#000000" stroke-width="2.0" />
<line x1="591.0" y1="59.0" x2="605.0" y2="73.0" stroke="#000000" stroke-width="2.0" />
<line x1="59.0" y1="73.0" x2="73.0" y2="87.0" stroke="#000000" stroke-width="2.0" />
<line x1="101.0" y1="73.0" x2="115.0" y2="87.0" stroke="#000000" stroke-width="2.0" />
<line x1="157.0" y1="73.0" x2="143.0" y2="87.0" stroke="#000000" stroke-width="2.0" />
<line x1="185.0" y1="73.0" x2="171.0" y2="87.0" stroke="#000000" stroke-width="2.0" />
<line x1="178.0" y1="73.0" x2="206.0" y2="73.0" stroke="#000000" stroke-width="2.0" />
<line x1="213.0" y1="73.0" x2="199.0" y2="87.0" stroke="#000000" stroke-width="2.0" />
<line x1="241.0" y1="73.0" x2="227.0" y2="87.0" stroke="#000000" stroke-width="2.0" />
<line x1="297.0" y1="73.0" x2="311.0" y2="87.0" stroke="#000000" stroke-width="2.0" />
<line x1="339.0" y1="73.0" x2="353.0" y2="87.0" stroke="#000000" stroke-width="2.0" />
<line x1="367.0" y1="73.0" x2="381.0" y2="87.0" stroke="#000000" stroke-width="2.0" />
<line x1="423.0" y1="73.0" x2="437.0" y2="87.0" stroke="#000000" stroke-width="2.0" />
<line x1="465.0" y1="73.0" x2="479.0" y2="87.0" stroke="#000000" stroke-width="2.0" />
<line x1="493.0" y1="73.0" x2="507.0" y2="87.0" stroke="#000000" stroke-width="2.0" />
<line x1="521.0" y1="73.0" x2="507.0" y2="87.0" stroke="#000000" stroke-width="2.0" />
<line x1="549.0" y1="73.0" x2="535.0" y2="87.0" stroke="#000000" stroke-width="2.0" />
<line x1="542.0" y1="87.0" x2="584.0" y2="87.0" stroke="#000000" stroke-width="2.0" />
<line x1="577.0" y1="73.0" x2="591.0" y2="87.0" stroke="#000000" stroke-width="2.0" />
<line x1="73.0" y1="87.0" x2="87.0" y2="101.0" stroke="#000000" stroke-width="2.0" />
<line x1="115.0" y1="87.0" x2="129.0" y2="101.0" stroke="#000000" stroke-width="2.0" />
<line x1="171.0" y1="87.0" x2="157.0" y2="101.0" stroke="#000000" stroke-width="2.0" />
<line x1="199.0" y1="87.0" x2="185.0" y2="101.0" stroke="#000000" stroke-width="2.0" />
<line x1="227.0" y1="87.0" x2="213.0" y2="101.0" stroke="#000000" stroke-width="2.0" />
<line x1="311.0" y1="87.0" x2="325.0" y2="101.0" stroke="#000000" stroke-width="2.0" />
<line x1="318.0" y1="101.0" x2="360.0" y2="101.0" stroke="#000000" stroke-width="2.0" />
<line x1="353.0" y1="87.0" x2="367.0" y2="101.0" stroke="#000000" stroke-width="2.0" />
<line x1="409.0" y1="87.0" x2="395.0" y2="101.0" stroke="#000000" stroke-width="2.0" />
<line x1="437.0" y1="87.0" x2="451.0" y2="101.0" stroke="#000000" stroke-width="2.0" />
<line x1="479.0" y1="87.0" x2="493.0" y2="101.0" stroke="#000000" stroke-width="2.0" />
<line x1="535.0" y1="87.0" x2="521.0" y2="101.0" stroke="#000000" stroke-width="2.0" />
<line x1="87.0" y1="101.0" x2="101.0" y2="115.0" stroke="#000000" stroke-width="2.0" />
<line x1="94.0" y1="115.0" x2="136.0" y2="115.0" stroke="#000000" stroke-width="2.0" />
<line x1="129.0" y1="101.0" x2="143.0" y2="115.0" stroke="#000000" stroke-width="2.0" />
<line x1="157.0" y1="101.0" x2="143.0" y2="115.0" stroke="#000000" stroke-width="2.0" />
<line x1="185.0" y1="101.0" x2="171.0" y2="115.0" stroke="#000000" stroke-width="2.0" />
<line x1="213.0" y1="101.0" x2="199.0" y2="115.0" stroke="#000000" stroke-width="2.0" />
<line x1="318.0" y1="115.0" x2="360.0" y2="115.0" stroke="#000000" stroke-width="2.0" />
<line x1="395.0" y1="101.0" x2="381.0" y2="115.0" stroke="#000000" stroke-width="2.0" />
<line x1="451.0" y1="101.0" x2="465.0" y2="115.0" stroke="#000000" stroke-width="2.0" />
<line x1="493.0" y1="101.0" x2="507.0" y2="115.0" stroke="#000000" stroke-width="2.0" />
<line x1="521.0" y1="101.0" x2="535.0" y2="115.0" stroke="#000000" stroke-width="2.0" />
<line x1="122.0" y1="129.0" x2="164.0" y2="129.0" stroke="#000000" stroke-width="2.0" />
<line x1="171.0" y1="115.0" x2="157.0" y2="129.0" stroke="#000000" stroke-width="2.0" />
<line x1="199.0" y1="115.0" x2="185.0" y2="129.0" stroke="#000000" stroke-width="2.0" />
<line x1="318.0" y1="129.0" x2="360.0" y2="129.0" stroke="#000000" stroke-width="2.0" />
<line x1="381.0" y1="115.0" x2="367.0" y2="129.0" stroke="#000000" stroke-width="2.0" />
<line x1="465.0" y1="115.0" x2="479.0" y2="129.0" stroke="#000000" stroke-width="2.0" />
<line x1="507.0" y1="115.0" x2="521.0" y2="129.0" stroke="#000000" stroke-width="2.0" />
<line x1="535.0" y1="115.0" x2="549.0" y2="129.0" stroke="#000000" stroke-width="2.0" />
<line x1="122.0" y1="143.0" x2="164.0" y2="143.0" stroke="#000000" stroke-width="2.0" />
<line x1="185.0" y1="129.0" x2="171.0" y2="143.0" stroke="#000000" stroke-width="2.0" />
<line x1="479.0" y1="129.0" x2="493.0" y2="143.0" stroke="#000000" stroke-width="2.0" />
<line x1="486.0" y1="143.0" x2="528.0" y2="143.0" stroke="#000000" stroke-width="2.0" />
<line x1="521.0" y1="129.0" x2="535.0" y2="143.0" stroke="#000000" stroke-width="2.0" />
<text x="171.0" y="14.9" font-family="monospace" font-size="14.0" fill="#000000" >
  \
</text>
<text x="479.0" y="14.9" font-family="monospace" font-size="14.0" fill="#000000" >
  /
</text>
<text x="521.0" y="14.9" font-family="monospace" font-size="14.0" fill="#000000" >
  /
</text>
<text x="157.0" y="28.900000000000002" font-family="monospace" font-size="14.0" fill="#000000" >
  :
</text>
<text x="339.0" y="28.900000000000002" font-family="monospace" font-size="14.0" fill="#000000" >
  \
</text>
<text x="535.0" y="28.900000000000002" font-family="monospace" font-size="14.0" fill="#000000" >
  :
</text>
<text x="143.0" y="42.9" font-family="monospace" font-size="14.0" fill="#000000" >
  :
</text>
<text x="325.0" y="42.9" font-family="monospace" font-size="14.0" fill="#000000" >
  :/
</text>
<text x="549.0" y="42.9" font-family="monospace" font-size="14.0" fill="#000000" >
  :
</text>
<text x="129.0" y="56.9" font-family="monospace" font-size="14.0" fill="#000000" >
  :
</text>
<text x="185.0" y="56.9" font-family="monospace" font-size="14.0" fill="#000000" >
  ::
</text>
<text x="311.0" y="56.9" font-family="monospace" font-size="14.0" fill="#000000" >
  ::
</text>
<text x="493.0" y="56.9" font-family="monospace" font-size="14.0" fill="#000000" >
  /
</text>
<text x="549.0" y="56.9" font-family="monospace" font-size="14.0" fill="#000000" >
  ::
</text>
<text x="115.0" y="70.89999999999999" font-family="monospace" font-size="14.0" fill="#000000" >
  :
</text>
<text x="171.0" y="70.89999999999999" font-family="monospace" font-size="14.0" fill="#000000" >
  :
</text>
<text x="199.0" y="70.89999999999999" font-family="monospace" font-size="14.0" fill="#000000" >
  \:
</text>
<text x="255.0" y="70.89999999999999" font-family="monospace" font-size="14.0" fill="#000000" >
  \
</text>
<text x="297.0" y="70.89999999999999" font-family="monospace" font-size="14.0" fill="#000000" >
  \/
</text>
<text x="339.0" y="70.89999999999999" font-family="monospace" font-size="14.0" fill="#000000" >
  :
</text>
<text x="423.0" y="70.89999999999999" font-family="monospace" font-size="14.0" fill="#000000" >
  /
</text>
<text x="465.0" y="70.89999999999999" font-family="monospace" font-size="14.0" fill="#000000" >
  /
</text>
<text x="535.0" y="70.89999999999999" font-family="monospace" font-size="14.0" fill="#000000" >
  :
</text>
<text x="577.0" y="70.89999999999999" font-family="monospace" font-size="14.0" fill="#000000" >
  :
</text>
<text x="115.0" y="84.89999999999999" font-family="monospace" font-size="14.0" fill="#000000" >
  :\
</text>
<text x="157.0" y="84.89999999999999" font-family="monospace" font-size="14.0" fill="#000000" >
  :
</text>
<text x="213.0" y="84.89999999999999" font-family="monospace" font-size="14.0" fill="#000000" >
  :
</text>
<text x="353.0" y="84.89999999999999" font-family="monospace" font-size="14.0" fill="#000000" >
  :
</text>
<text x="381.0" y="84.89999999999999" font-family="monospace" font-size="14.0" fill="#000000" >
  /\
</text>
<text x="479.0" y="84.89999999999999" font-family="monospace" font-size="14.0" fill="#000000" >
  :
</text>
<text x="521.0" y="84.89999999999999" font-family="monospace" font-size="14.0" fill="#000000" >
  :
</text>
<text x="591.0" y="84.89999999999999" font-family="monospace" font-size="14.0" fill="#000000" >
  /
</text>
<text x="129.0" y="98.89999999999999" font-family="monospace" font-size="14.0" fill="#000000" >
  ::
</text>
<text x="199.0" y="98.89999999999999" font-family="monospace" font-size="14.0" fill="#000000" >
  :
</text>
<text x="367.0" y="98.89999999999999" font-family="monospace" font-size="14.0" fill="#000000" >
  ::
</text>
<text x="493.0" y="98.89999999999999" font-family="monospace" font-size="14.0" fill="#000000" >
  ::
</text>
<text x="185.0" y="112.89999999999999" font-family="monospace" font-size="14.0" fill="#000000" >
  :
</text>
<text x="311.0" y="112.89999999999999" font-family="monospace" font-size="14.0" fill="#000000" >
  /
</text>
<text x="353.0" y="112.89999999999999" font-family="monospace" font-size="14.0" fill="#000000" >
  /:
</text>
<text x="507.0" y="112.89999999999999" font-family="monospace" font-size="14.0" fill="#000000" >
  :
</text>
<text x="115.0" y="126.89999999999999" font-family="monospace" font-size="14.0" fill="#000000" >
  /
</text>
<text x="171.0" y="126.89999999999999" font-family="monospace" font-size="14.0" fill="#000000" >
  :
</text>
<text x="213.0" y="126.89999999999999" font-family="monospace" font-size="14.0" fill="#000000" >
  please \
</text>
<text x="353.0" y="126.89999999999999" font-family="monospace" font-size="14.0" fill="#000000" >
  \
</text>
<text x="521.0" y="126.89999999999999" font-family="monospace" font-size="14.0" fill="#000000" >
  :
</text>
<text x="115.0" y="140.9" font-family="monospace" font-size="14.0" fill="#000000" >
  \
</text>
<text x="157.0" y="140.9" font-family="monospace" font-size="14.0" fill="#000000" >
  \
</text>
<text x="199.0" y="140.9" font-family="monospace" font-size="14.0" fill="#000000" >
  acknowledge your use
</text>
<text x="535.0" y="140.9" font-family="monospace" font-size="14.0" fill="#000000" >
  /
</text>
</svg>
